<?xml version="1.0" standalone="no"?>
<!DOCTYPE svg PUBLIC "-//W3C//DTD SVG 20010904//EN"
 "http://www.w3.org/TR/2001/REC-SVG-20010904/DTD/svg10.dtd">
<svg version="1.0" xmlns="http://www.w3.org/2000/svg"
 width="180.000000pt" height="180.000000pt" viewBox="0 0 180.000000 180.000000"
 preserveAspectRatio="xMidYMid meet">
<metadata>
Created by potrace 1.14, written by Peter Selinger 2001-2017
</metadata>
<g transform="translate(0.000000,180.000000) scale(0.100000,-0.100000)"
fill="#000000" stroke="none">
<path d="M0 900 l0 -900 294 0 294 0 12 35 c12 38 38 46 60 20 11 -13 16 -12
37 11 20 22 23 33 18 64 -6 33 -3 42 24 69 17 18 31 36 31 40 0 5 9 11 20 14
11 3 20 14 20 25 0 20 78 92 99 92 6 0 20 5 30 12 15 9 26 9 44 1 27 -12 46 1
60 39 7 20 70 54 138 74 62 19 87 8 139 -58 23 -29 53 -60 68 -68 15 -9 37
-36 49 -60 13 -24 30 -48 38 -53 8 -4 22 -23 29 -42 8 -19 28 -41 46 -50 66
-34 151 -109 157 -137 5 -26 9 -28 49 -28 l44 0 0 51 c0 31 -4 48 -10 44 -18
-11 -24 27 -7 40 15 11 17 56 17 495 l0 483 -80 -6 c-80 -6 -108 3 -71 22 11
6 30 11 43 11 28 -1 56 4 86 14 l22 7 0 320 0 319 -900 0 -900 0 0 -900z
m1205 170 c-3 -5 -11 -10 -16 -10 -6 0 -7 5 -4 10 3 6 11 10 16 10 6 0 7 -4 4
-10z m-950 -10 c3 -6 -1 -13 -10 -16 -19 -8 -30 0 -20 15 8 14 22 14 30 1z
m90 1 c3 -5 1 -13 -5 -16 -15 -9 -43 3 -35 15 8 13 32 13 40 1z m-265 -25 c0
-3 -4 -8 -10 -11 -5 -3 -10 -1 -10 4 0 6 5 11 10 11 6 0 10 -2 10 -4z"/>
</g>
</svg>
