<?xml version="1.0" standalone="no"?>
<!DOCTYPE svg PUBLIC "-//W3C//DTD SVG 20010904//EN"
 "http://www.w3.org/TR/2001/REC-SVG-20010904/DTD/svg10.dtd">
<svg version="1.0" xmlns="http://www.w3.org/2000/svg"
 width="768.000000pt" height="768.000000pt" viewBox="0 0 768.000000 768.000000"
 preserveAspectRatio="xMidYMid meet">
<metadata>
Created by potrace 1.14, written by Peter Selinger 2001-2017
</metadata>
<g transform="translate(0.000000,768.000000) scale(0.100000,-0.100000)"
fill="#000000" stroke="none">
<path d="M3630 7034 c-141 -13 -314 -37 -426 -60 -1252 -253 -2245 -1246
-2498 -2497 -48 -239 -60 -362 -60 -642 0 -280 12 -403 60 -642 253 -1251
1246 -2244 2497 -2497 239 -48 362 -60 642 -60 280 0 403 12 642 60 1251 253
2244 1246 2497 2497 48 239 60 362 60 642 0 280 -12 403 -60 642 -272 1343
-1374 2361 -2747 2539 -116 15 -511 26 -607 18z m591 -288 c59 -9 153 -25 210
-36 1137 -228 2048 -1133 2284 -2267 48 -229 59 -342 59 -608 0 -266 -11 -379
-59 -608 -234 -1127 -1135 -2028 -2262 -2262 -229 -48 -342 -59 -608 -59 -266
0 -379 11 -608 59 -1127 234 -2028 1135 -2262 2262 -48 229 -59 342 -59 608 0
266 11 379 59 608 218 1050 1025 1919 2055 2211 152 43 339 80 480 95 58 6
121 13 140 15 74 9 470 -4 571 -18z"/>
<path d="M3832 4888 l-412 -413 -370 370 -370 370 -142 -143 -143 -142 370
-370 370 -370 -393 -393 -392 -392 140 -140 140 -140 393 393 392 392 290
-290 290 -290 -393 -393 -392 -392 140 -140 140 -140 395 395 395 395 350
-350 350 -350 140 140 140 140 -350 350 -350 350 412 412 413 413 -140 140
-140 140 -412 -412 -413 -413 -290 290 -290 290 412 412 413 413 -140 140
-140 140 -413 -412z"/>
</g>
</svg>
